
        <svg xmlns="http://www.w3.org/2000/svg" xmlns:xlink="http://www.w3.org/1999/xlink" version="1.1" width="3208.3333333333335" 
        height="873.9583333333333" viewBox="0 0 3208.3333333333335 873.9583333333333">
			<rect fill="#404eed" width="3208.3333333333335" height="873.9583333333333"/>
			<g transform="scale(10.416666666666666) translate(10, 10)">
				<defs id="SvgjsDefs5501"></defs><g id="SvgjsG5502" featureKey="symbolContainer" transform="matrix(0.9,0,0,0.9,0,0)" fill="#ffffff"><rect xmlns="http://www.w3.org/2000/svg" width="75" height="71" rx="10" ry="10"></rect></g><g id="SvgjsG5503" featureKey="monogramFeature-0" transform="matrix(0.7273035704306213,0,0,0.7273035704306213,13.81843279942482,3.3339424556753006)" fill="#404eed"><path d="M41.414 20.061 c4.674 0.047051 9.8868 0.42106 9.7038 0.96384 c-1.0468 6.1488 -1.9175 12.405 -2.6465 18.683 c-0.72198 6.2808 -1.3093 12.594 -1.6696 18.921 c-0.10108 1.3729 -5.1889 1.8953 -5.6884 0.51733 c-1.3493 -5.6744 -2.5086 -11.392 -3.5573 -17.14 l-7.749 10.557 c0.027949 0.14619 0.060354 0.28981 0.087654 0.436 c0.23514 1.397 -4.6607 2.8791 -5.4139 1.8221 c-2.2124 -4.149 -4.885 -8.1378 -7.6362 -12.185 c-1.0525 5.5931 -2.2976 11.122 -3.7511 16.563 c-0.37752 1.3347 -5.4551 0.7233 -5.675 -0.64956 c-0.45252 -12.345 -1.9448 -24.5 -4.4134 -36.295 c-0.15 -0.38894 2.7755 -0.78936 6.2262 -1.0481 c4.7318 -1.7555 11.576 -3.7429 11.558 -3.183 c0.83706 5.3216 2.5315 11.066 4.2799 16.881 c0.64254 2.161 1.3099 4.3397 1.955 6.546 l7.884 -23.951 c0.06867 -0.43793 3.1525 0.88722 6.5058 2.5601 z"></path></g><g id="SvgjsG5504" featureKey="nameFeature-0" transform="matrix(1.614757527658784,0,0,1.614757527658784,85.41574363950222,-10.379420280463592)" fill="#ffffff"><path d="M21.149 19.412 c4.4008 0 7.9804 3.5802 7.9804 7.9804 l0 10.412 c0 1.2128 -0.98328 2.196 -2.196 2.196 s-2.196 -0.98328 -2.196 -2.196 l0 -10.412 c0 -1.9784 -1.6097 -3.5881 -3.5884 -3.5881 c-1.9784 0 -3.5881 1.6094 -3.5881 3.5881 l0 10.412 c0 1.2128 -0.98328 2.196 -2.196 2.196 s-2.196 -0.98328 -2.196 -2.196 l0 -10.412 c0 -1.9784 -1.6094 -3.5881 -3.5881 -3.5881 s-3.5884 1.6094 -3.5884 3.5881 l0 10.412 c0 1.2128 -0.98328 2.196 -2.196 2.196 s-2.196 -0.98328 -2.196 -2.196 l0 -16.196 c0 -1.2128 0.98328 -2.196 2.196 -2.196 c0.78592 0 1.4736 0.4142 1.8615 1.0349 c1.1595 -0.65744 2.4978 -1.0349 3.923 -1.0349 c2.2748 0 4.3288 0.9586 5.784 2.4912 c1.4549 -1.5326 3.509 -2.4912 5.784 -2.4912 z M49.446 19.412 c1.2128 0 2.196 0.98328 2.196 2.196 l0 16.196 c0 1.2128 -0.98328 2.196 -2.196 2.196 c-1.1071 0 -2.0201 -0.81968 -2.1716 -1.885 c-1.677 1.1856 -3.721 1.885 -5.9264 1.885 c-5.6764 0 -10.294 -4.6176 -10.294 -10.294 s4.6176 -10.294 10.294 -10.294 c2.2054 0 4.2492 0.69944 5.9264 1.885 c0.15152 -1.0654 1.0645 -1.885 2.1716 -1.885 z M41.348 35.608 c3.2543 0 5.902 -2.6476 5.902 -5.902 s-2.6476 -5.902 -5.902 -5.902 s-5.902 2.6476 -5.902 5.902 s2.6476 5.902 5.902 5.902 z M66.96 29.733 l6.518 6.518 c0.85784 0.85756 0.85784 2.248 0 3.1056 c-0.4288 0.4288 -0.99072 0.64316 -1.5529 0.64316 s-1.1241 -0.21438 -1.5529 -0.64316 l-6.5176 -6.5176 l-6.5176 6.5176 c-0.42028 0.42 -0.98192 0.64316 -1.5534 0.64316 c-0.28301 0 -0.56824 -0.054608 -0.84 -0.16715 c-0.82052 -0.33984 -1.3555 -1.1406 -1.3555 -2.0289 l0 -23.606 c0 -1.2128 0.98328 -2.196 2.196 -2.196 s2.196 0.98328 2.196 2.196 l0 18.305 l12.392 -12.392 c0.85756 -0.85756 2.248 -0.85756 3.1056 0 c0.85784 0.85756 0.85784 2.248 0 3.1056 z M89.414 29.733 l6.518 6.518 c0.85784 0.85756 0.85784 2.248 0 3.1056 c-0.4288 0.4288 -0.99072 0.64316 -1.5529 0.64316 s-1.1241 -0.21438 -1.5529 -0.64316 l-6.5176 -6.5176 l-6.5176 6.5176 c-0.42028 0.42 -0.98192 0.64316 -1.5534 0.64316 c-0.28301 0 -0.56824 -0.054608 -0.84 -0.16715 c-0.82052 -0.33984 -1.3555 -1.1406 -1.3555 -2.0289 l0 -23.606 c0 -1.2128 0.98328 -2.196 2.196 -2.196 s2.196 0.98328 2.196 2.196 l0 18.305 l12.392 -12.392 c0.85756 -0.85756 2.248 -0.85756 3.1056 0 c0.85784 0.85756 0.85784 2.248 0 3.1056 z M100.69200000000002 19.412 c1.2128 0 2.196 0.98328 2.196 2.196 l0 16.196 c0 1.2128 -0.98328 2.196 -2.196 2.196 s-2.196 -0.98328 -2.196 -2.196 l0 -16.196 c0 -1.2128 0.98328 -2.196 2.196 -2.196 z M98.66340000000001 15.036000000000001 c-0.054884 -0.13176 -0.096056 -0.2718 -0.12352 -0.4118 c-0.030195 -0.14 -0.043908 -0.28551 -0.043908 -0.42824 s0.013711 -0.28824 0.043908 -0.42824 c0.027461 -0.14 0.068632 -0.28 0.12352 -0.41176 s0.12352 -0.26078 0.20312 -0.37883 c0.079608 -0.12078 0.1702 -0.23332 0.27176 -0.33488 s0.2141 -0.19215 0.33488 -0.27176 c0.11805 -0.079608 0.24707 -0.14824 0.37883 -0.20312 s0.27176 -0.096056 0.41176 -0.12352 c0.71372 -0.14551 1.4714 0.090588 1.982 0.59844 c0.098828 0.10156 0.19215 0.2141 0.27176 0.33488 c0.079608 0.11805 0.14824 0.24707 0.20312 0.37883 s0.096056 0.27176 0.12352 0.41176 c0.030195 0.14 0.043908 0.28551 0.043908 0.42824 s-0.013711 0.28824 -0.043908 0.42824 c-0.027461 0.14 -0.068632 0.28 -0.12352 0.41176 s-0.12352 0.26078 -0.20312 0.37883 c-0.079608 0.12078 -0.17293 0.23332 -0.27176 0.33488 c-0.10156 0.10156 -0.2141 0.19215 -0.33488 0.27176 c-0.11805 0.079608 -0.24707 0.14824 -0.37883 0.20312 s-0.27176 0.096056 -0.41176 0.12352 c-0.14 0.030195 -0.28551 0.043908 -0.42824 0.043908 s-0.28824 -0.013711 -0.42824 -0.043908 c-0.14 -0.027461 -0.28 -0.068632 -0.41176 -0.12352 s-0.26078 -0.12352 -0.37883 -0.20312 c-0.12078 -0.079608 -0.23332 -0.1702 -0.33488 -0.27176 s-0.19215 -0.2141 -0.27176 -0.33488 c-0.079608 -0.11805 -0.14824 -0.24707 -0.20312 -0.37883 z M115.16400000000002 19.412 c5.6764 0 10.294 4.6176 10.294 10.294 c0 1.2128 -0.98328 2.196 -2.196 2.196 l-13.576 0 c0.87292 2.17 2.9995 3.7059 5.4784 3.7059 c1.5765 0 3.0586 -0.6138 4.1732 -1.7286 c0.85784 -0.85756 2.248 -0.85732 3.1058 0 c0.85784 0.85784 0.85756 2.2482 0 3.1058 c-1.9446 1.9443 -4.5296 3.0149 -7.2792 3.0149 c-5.6764 0 -10.294 -4.6176 -10.294 -10.294 s4.6176 -10.294 10.294 -10.294 z M109.68560000000001 27.509999999999998 l10.957 0 c-0.87292 -2.17 -2.9995 -3.7059 -5.4784 -3.7059 s-4.6056 1.5359 -5.4784 3.7059 z"></path></g>
			</g>
		</svg>
	